<svg width="70" height="70" viewBox="0 0 70 70" fill="none" xmlns="http://www.w3.org/2000/svg">
<path d="M17.9729 24.462C17.8487 24.4641 17.7252 24.4418 17.6096 24.3963C17.494 24.3507 17.3885 24.2829 17.2992 24.1966C17.1187 24.0223 17.0148 23.7834 17.0104 23.5326C17.006 23.2817 17.1015 23.0393 17.2758 22.8588C17.45 22.6783 17.6889 22.5745 17.9398 22.5701C22.5813 22.5182 27.2128 22.1262 31.7969 21.3971C31.8784 21.3801 31.9618 21.3744 32.0448 21.3801C33.1938 21.4408 34.3086 21.7923 35.2846 22.4017C35.4458 22.5188 35.5659 22.6838 35.6278 22.8731C35.6897 23.0625 35.6902 23.2666 35.6293 23.4562C35.5684 23.6459 35.4491 23.8115 35.2885 23.9294C35.128 24.0473 34.9343 24.1115 34.7351 24.1129C34.5123 24.1129 34.2962 24.0364 34.123 23.8963C33.4853 23.5308 32.7711 23.3193 32.0372 23.2786C27.3917 24.0085 22.6997 24.4039 17.9975 24.462H17.9729Z" fill="#CAA23E"/>
<path d="M52.5757 46.9661C51.7686 46.9672 50.982 46.7121 50.3291 46.2378L50.1257 46.0968C50.0992 46.0788 50.0547 46.0429 50.0131 46.0022L38.8784 37.9834C38.7744 37.9125 38.6857 37.8215 38.6173 37.7158C38.549 37.6101 38.5024 37.4919 38.4804 37.368C38.4583 37.244 38.4612 37.117 38.4889 36.9942C38.5165 36.8714 38.5684 36.7554 38.6415 36.6529C38.7146 36.5504 38.8074 36.4636 38.9144 36.3974C39.0215 36.3313 39.1407 36.2871 39.2651 36.2676C39.3894 36.2481 39.5164 36.2536 39.6386 36.2838C39.7608 36.314 39.8757 36.3683 39.9766 36.4435L40.7334 36.9826L51.153 44.4963C51.1842 44.5186 51.2139 44.543 51.2419 44.5691L51.4226 44.6949C51.8329 44.989 52.3404 45.1144 52.8405 45.0452C53.3405 44.9761 53.7949 44.7176 54.11 44.3232C54.3033 44.0792 54.435 43.7924 54.4941 43.4868C54.5532 43.1812 54.538 42.8659 54.4496 42.5675C54.3434 42.1916 54.1237 41.8576 53.8205 41.6111L38.9276 29.4775C33.2245 32.5045 29.1843 30.9475 27.2556 29.7149C26.9368 29.5075 26.678 29.2201 26.505 28.8814C26.3319 28.5427 26.2507 28.1646 26.2693 27.7847C26.288 27.4049 26.4059 27.0365 26.6113 26.7164C26.8167 26.3964 27.1025 26.1357 27.44 25.9605L35.9649 21.4332C36.509 21.1485 37.1041 20.9744 37.7158 20.9208C38.3276 20.8672 38.9439 20.9353 39.5292 21.121L44.572 22.7575C46.0567 23.2458 47.6669 23.1878 49.1126 22.5939L51.3091 21.6943C51.424 21.6471 51.5472 21.6231 51.6714 21.6235C51.7957 21.624 51.9186 21.6489 52.0333 21.6968C52.1479 21.7448 52.252 21.8149 52.3395 21.9031C52.4271 21.9912 52.4964 22.0958 52.5435 22.2108C52.5907 22.3257 52.6147 22.4489 52.6143 22.5731C52.6138 22.6974 52.5889 22.8203 52.5409 22.935C52.493 23.0496 52.4229 23.1536 52.3347 23.2412C52.2466 23.3287 52.142 23.3981 52.027 23.4452L49.8324 24.3439C47.9709 25.1101 45.8967 25.1853 43.9846 24.5558L38.9465 22.9202C38.6014 22.8118 38.2383 22.7727 37.8781 22.8052C37.5178 22.8377 37.1676 22.941 36.8474 23.1094L28.3207 27.6376C28.2732 27.66 28.2329 27.6951 28.2042 27.739C28.1754 27.7829 28.1595 27.834 28.158 27.8864C28.1541 27.9339 28.1633 27.9815 28.1847 28.024C28.206 28.0666 28.2387 28.1024 28.2791 28.1276C30.2656 29.3971 33.6757 30.3279 38.5577 27.5232C38.7238 27.4278 38.9148 27.385 39.1057 27.4006C39.2966 27.4161 39.4782 27.4892 39.6266 27.6102L55.0077 40.144C55.6109 40.6306 56.0495 41.2912 56.2639 42.0359C56.4338 42.622 56.4624 43.2401 56.3473 43.8395C56.2322 44.4388 55.9767 45.0023 55.6018 45.4839C55.2446 45.9462 54.786 46.3203 54.2613 46.5773C53.7366 46.8343 53.1599 46.9673 52.5757 46.9661Z" fill="#CAA23E"/>
<path d="M48.6614 51.3506C47.8597 51.3514 47.0778 51.1024 46.4242 50.6383L36.1985 43.3829C35.9987 43.2359 35.8646 43.0163 35.8252 42.7714C35.7857 42.5265 35.844 42.2759 35.9875 42.0736C36.131 41.8713 36.3483 41.7334 36.5925 41.6897C36.8367 41.646 37.0882 41.7 37.293 41.84L47.5187 49.0945C47.9477 49.3747 48.4684 49.4783 48.972 49.3836C49.4756 49.2889 49.9231 49.0033 50.2211 48.5864C50.5191 48.1695 50.6444 47.6536 50.5709 47.1465C50.4974 46.6393 50.2308 46.1802 49.8268 45.865L39.6351 38.5198C39.4473 38.3678 39.3247 38.1497 39.2925 37.9103C39.2604 37.6708 39.3211 37.4281 39.4622 37.232C39.6032 37.0358 39.814 36.9011 40.0513 36.8554C40.2886 36.8098 40.5343 36.8566 40.7381 36.9864L50.9326 44.3326C51.5961 44.813 52.0906 45.4912 52.3449 46.27C52.5992 47.0487 52.6005 47.888 52.3484 48.6675C52.0963 49.447 51.6038 50.1266 50.9416 50.609C50.2795 51.0913 49.4815 51.3516 48.6623 51.3525L48.6614 51.3506Z" fill="#CAA23E"/>
<path d="M44.2466 55.1411C43.4852 55.1409 42.7421 54.9075 42.1173 54.4724L32.9539 48.1251C32.7475 47.9822 32.6064 47.7632 32.5615 47.5162C32.5166 47.2693 32.5717 47.0146 32.7146 46.8083C32.8574 46.602 33.0764 46.4608 33.3234 46.4159C33.5703 46.371 33.825 46.4261 34.0313 46.569L43.1947 52.9163C43.3959 53.0555 43.6226 53.1536 43.8618 53.2052C44.101 53.2568 44.3479 53.2607 44.5886 53.2168C44.8293 53.1728 45.059 53.0819 45.2646 52.9492C45.4701 52.8165 45.6475 52.6446 45.7866 52.4433C46.0634 52.0397 46.1709 51.5437 46.086 51.0617C46.0011 50.5797 45.7306 50.1503 45.3325 49.8656L36.2136 43.3972C36.1099 43.3263 36.0214 43.2355 35.9532 43.13C35.885 43.0246 35.8385 42.9066 35.8164 42.7829C35.7943 42.6593 35.797 42.5325 35.8244 42.4099C35.8518 42.2874 35.9033 42.1715 35.976 42.069C36.0487 41.9666 36.141 41.8797 36.2476 41.8133C36.3543 41.7469 36.473 41.7024 36.597 41.6825C36.721 41.6625 36.8478 41.6674 36.9699 41.6969C37.0919 41.7264 37.2069 41.78 37.3081 41.8544L46.427 48.3228C47.2297 48.8964 47.7753 49.762 47.9467 50.7336C48.1181 51.7051 47.9016 52.7052 47.3436 53.5188C47.0649 53.9255 46.7082 54.2728 46.2943 54.5407C45.8804 54.8086 45.4175 54.9918 44.9324 55.0797C44.7062 55.1209 44.4766 55.1415 44.2466 55.1411Z" fill="#CAA23E"/>
<path d="M38.8414 58.2512C38.1796 58.248 37.5302 58.0712 36.9581 57.7385L31.8717 54.8061C31.6562 54.6798 31.4994 54.4733 31.4356 54.2318C31.3718 53.9903 31.406 53.7334 31.5309 53.5171C31.6558 53.3007 31.8612 53.1426 32.1023 53.0772C32.3433 53.0117 32.6005 53.0443 32.8177 53.1677L37.9031 56.1002C38.333 56.3428 38.8407 56.4078 39.3179 56.2813C39.7951 56.1547 40.2039 55.8467 40.4571 55.4229C40.6976 55.0166 40.7741 54.5339 40.6709 54.0731C40.5677 53.6124 40.2927 53.2084 39.9018 52.9435L33.4032 48.4418C33.3011 48.371 33.2139 48.2809 33.1466 48.1764C33.0794 48.072 33.0333 47.9553 33.0112 47.8331C32.989 47.7109 32.9911 47.5855 33.0174 47.4641C33.0437 47.3427 33.0936 47.2276 33.1644 47.1255C33.2351 47.0234 33.3253 46.9362 33.4297 46.8689C33.5341 46.8017 33.6508 46.7556 33.773 46.7335C33.8953 46.7113 34.0206 46.7134 34.1421 46.7397C34.2635 46.766 34.3785 46.8159 34.4806 46.8866L40.9783 51.3875C41.638 51.8441 42.1346 52.4994 42.3958 53.258C42.657 54.0165 42.6692 54.8387 42.4307 55.6046C42.1921 56.3706 41.7152 57.0404 41.0694 57.5164C40.4236 57.9925 39.6428 58.2499 38.8405 58.2512H38.8414Z" fill="#CAA23E"/>
<path d="M28.1305 57.6865C27.3566 57.6877 26.6008 57.4527 25.964 57.013C25.3272 56.5733 24.8397 55.9497 24.5666 55.2256C24.2936 54.5015 24.2479 53.7113 24.4358 52.9606C24.6237 52.2099 25.0361 51.5344 25.6181 51.0242L28.1447 48.8107C28.5202 48.4811 28.9569 48.2286 29.4299 48.0678C29.9029 47.9069 30.403 47.8408 30.9016 47.8732C31.4002 47.9057 31.8875 48.036 32.3357 48.2567C32.7839 48.4774 33.1843 48.7843 33.5139 49.1598C33.8435 49.5353 34.0958 49.9721 34.2566 50.4451C34.4174 50.9182 34.4834 51.4183 34.4509 51.9169C34.4184 52.4154 34.288 52.9027 34.0672 53.3509C33.8464 53.7991 33.5394 54.1994 33.1639 54.529L30.6373 56.7472C29.9438 57.3549 29.0526 57.6888 28.1305 57.6865ZM30.6534 49.7567C30.1895 49.7555 29.7411 49.9236 29.3924 50.2296L26.8648 52.446C26.676 52.6116 26.5217 52.8129 26.4106 53.0382C26.2996 53.2635 26.234 53.5084 26.2176 53.7591C26.2012 54.0097 26.2344 54.2611 26.3151 54.499C26.3959 54.7368 26.5228 54.9564 26.6884 55.1452C27.023 55.5266 27.4953 55.7594 28.0015 55.7925C28.2522 55.8089 28.5036 55.7757 28.7414 55.6949C28.9793 55.6142 29.1989 55.4873 29.3877 55.3217L31.9143 53.1034C32.2058 52.8469 32.4122 52.5077 32.5061 52.1309C32.6 51.7542 32.577 51.3577 32.4401 50.9944C32.3032 50.631 32.0589 50.318 31.7398 50.0969C31.4206 49.8758 31.0416 49.7571 30.6534 49.7567Z" fill="#CAA23E"/>
<path d="M22.4039 55.1099C22.3197 55.1099 22.2355 55.1099 22.1513 55.1023C21.6524 55.0711 21.1647 54.9413 20.7162 54.7205C20.2678 54.4997 19.8675 54.1922 19.5386 53.8158C19.2045 53.4402 18.9478 53.0024 18.7833 52.5274C18.6188 52.0524 18.5498 51.5496 18.5801 51.0478C18.6104 50.5461 18.7395 50.0552 18.96 49.6035C19.1805 49.1517 19.488 48.748 19.8649 48.4154L24.0857 44.7101C24.4612 44.3805 24.8979 44.1281 25.371 43.9672C25.844 43.8064 26.3441 43.7403 26.8426 43.7727C27.3412 43.8051 27.8285 43.9354 28.2767 44.1561C28.725 44.3769 29.1253 44.6837 29.4549 45.0592L28.771 45.7147L29.4814 45.0904C29.8112 45.4658 30.0637 45.9025 30.2246 46.3756C30.3856 46.8486 30.4517 47.3487 30.4193 47.8473C30.3869 48.3459 30.2565 48.8333 30.0357 49.2815C29.8149 49.7297 29.5079 50.13 29.1324 50.4596L24.9078 54.1649C24.2166 54.7751 23.3259 55.1113 22.4039 55.1099ZM26.5897 45.6561C26.1263 45.6548 25.6785 45.823 25.3306 46.1291L21.1098 49.8343C20.8272 50.0895 20.6259 50.4221 20.5309 50.7907C20.4359 51.1594 20.4514 51.5479 20.5755 51.9078C20.6997 52.2677 20.9269 52.5832 21.2289 52.815C21.531 53.0468 21.8945 53.1846 22.2743 53.2113C22.5251 53.2285 22.7768 53.1956 23.0148 53.1144C23.2527 53.0332 23.4721 52.9053 23.6601 52.7384L27.8809 49.0331C28.0697 48.8674 28.2241 48.6661 28.3352 48.4408C28.4462 48.2154 28.5118 47.9704 28.5281 47.7197C28.5445 47.469 28.5113 47.2175 28.4304 46.9796C28.3495 46.7418 28.2226 46.5222 28.0568 46.3334L28.0294 46.3022C27.8643 46.1141 27.6637 45.9605 27.439 45.8502C27.2143 45.74 26.97 45.6753 26.7202 45.6599C26.6757 45.658 26.6313 45.657 26.5887 45.657L26.5897 45.6561Z" fill="#CAA23E"/>
<path d="M17.6306 51.6373C17.5474 51.6373 17.4632 51.6373 17.378 51.6297C16.8792 51.5985 16.3914 51.4687 15.943 51.2479C15.4945 51.0271 15.0943 50.7196 14.7653 50.3433L14.6622 50.2203C13.9973 49.4619 13.6608 48.4704 13.7266 47.464C13.7924 46.4575 14.2552 45.5184 15.0132 44.853L19.9066 40.5574C20.282 40.2277 20.7187 39.9752 21.1917 39.8142C21.6647 39.6533 22.1649 39.5872 22.6635 39.6196C23.1621 39.652 23.6494 39.7823 24.0976 40.0032C24.5459 40.224 24.9462 40.5309 25.2757 40.9065L25.3826 41.0285C26.0478 41.7868 26.3845 42.7783 26.3186 43.7849C26.2528 44.7914 25.7899 45.7306 25.0317 46.3958L20.1383 50.6914C19.4462 51.3027 18.5541 51.6392 17.6306 51.6373ZM22.4105 41.5043C21.9472 41.5032 21.4994 41.6714 21.1514 41.9773L16.258 46.2729C15.8764 46.6077 15.6433 47.0804 15.6101 47.587C15.577 48.0937 15.7464 48.5927 16.0812 48.9745L16.188 49.0965C16.523 49.4771 16.9954 49.7093 17.5014 49.7419C18.0074 49.7745 18.5057 49.605 18.8868 49.2706L23.7802 44.975C23.9691 44.8093 24.1234 44.6081 24.2345 44.3827C24.3455 44.1573 24.4111 43.9123 24.4275 43.6616C24.4438 43.4109 24.4106 43.1594 24.3297 42.9216C24.2488 42.6837 24.1219 42.4641 23.9562 42.2753L23.8512 42.1551C23.686 41.9662 23.4849 41.812 23.2597 41.7012C23.0345 41.5905 22.7896 41.5255 22.5391 41.51C22.4947 41.5062 22.453 41.5043 22.4105 41.5043Z" fill="#CAA23E"/>
<path d="M13.5185 47.4269C13.4353 47.4269 13.3501 47.4269 13.2659 47.4184C12.5103 47.3707 11.7858 47.1002 11.1839 46.6409C10.582 46.1816 10.1297 45.5541 9.88433 44.8379C9.63893 44.1216 9.61137 43.3487 9.80514 42.6167C9.99891 41.8848 10.4053 41.2268 10.973 40.7258L14.0369 38.0365C14.4123 37.7067 14.849 37.4542 15.322 37.2932C15.7951 37.1323 16.2952 37.0662 16.7938 37.0986C17.2924 37.131 17.7798 37.2613 18.228 37.4822C18.6762 37.703 19.0765 38.0099 19.4061 38.3855L19.4392 38.4233C19.7689 38.7988 20.0215 39.2355 20.1824 39.7085C20.3433 40.1815 20.4095 40.6817 20.3771 41.1803C20.3446 41.6789 20.2143 42.1662 19.9935 42.6144C19.7727 43.0627 19.4657 43.463 19.0901 43.7925L16.0262 46.4819C15.334 47.0929 14.4419 47.4291 13.5185 47.4269ZM16.5455 38.9824C16.0822 38.9812 15.6344 39.1494 15.2865 39.4554L12.2226 42.1447C12.0337 42.3104 11.8793 42.5117 11.7683 42.737C11.6572 42.9624 11.5917 43.2074 11.5753 43.4581C11.559 43.7088 11.5922 43.9603 11.6731 44.1982C11.7539 44.436 11.8809 44.6556 12.0466 44.8444C12.2111 45.0392 12.4125 45.1994 12.6393 45.3157C12.8662 45.432 13.1138 45.5021 13.3679 45.522C13.622 45.5419 13.8776 45.5111 14.1197 45.4315C14.3618 45.3519 14.5858 45.225 14.7785 45.0582L17.8424 42.3689C18.0313 42.2032 18.1857 42.0019 18.2967 41.7766C18.4078 41.5512 18.4733 41.3062 18.4897 41.0555C18.506 40.8048 18.4728 40.5533 18.3919 40.3154C18.3111 40.0776 18.1841 39.858 18.0184 39.6692L17.9853 39.6313C17.82 39.4421 17.6189 39.2876 17.3935 39.1767C17.1682 39.0658 16.923 39.0007 16.6723 38.9852C16.6259 38.9843 16.5834 38.9824 16.5408 38.9824H16.5455Z" fill="#CAA23E"/>
<path d="M11.8026 42.2005C11.5978 42.2009 11.3985 42.1344 11.235 42.0113L8.00269 39.5518C7.90381 39.4766 7.82071 39.3826 7.75814 39.2753C7.69557 39.168 7.65475 39.0494 7.63801 38.9263C7.62128 38.8032 7.62896 38.678 7.66061 38.5578C7.69226 38.4377 7.74727 38.325 7.82248 38.2261C7.97439 38.0264 8.19941 37.8952 8.44804 37.8614C8.57114 37.8447 8.69634 37.8523 8.81648 37.884C8.93662 37.9157 9.04935 37.9707 9.14823 38.0459L12.3805 40.5053C12.5398 40.6247 12.6573 40.7913 12.7163 40.9814C12.7754 41.1714 12.773 41.3753 12.7095 41.5639C12.646 41.7525 12.5246 41.9163 12.3626 42.032C12.2006 42.1476 12.0063 42.2092 11.8073 42.208L11.8026 42.2005Z" fill="#CAA23E"/>
<path d="M55.3558 43.2485C55.1687 43.2484 54.9859 43.1929 54.8303 43.089C54.6748 42.985 54.5536 42.8373 54.482 42.6645C54.4104 42.4917 54.3917 42.3015 54.4282 42.118C54.4647 41.9345 54.5547 41.766 54.687 41.6337L59.9947 36.3241C60.1731 36.1518 60.4121 36.0565 60.6601 36.0586C60.9081 36.0608 61.1454 36.1603 61.3208 36.3357C61.4961 36.511 61.5956 36.7483 61.5978 36.9963C61.5999 37.2443 61.5046 37.4833 61.3323 37.6617L56.0246 42.9694C55.9369 43.0576 55.8327 43.1276 55.718 43.1755C55.6032 43.2234 55.4801 43.2482 55.3558 43.2485Z" fill="#CAA23E"/>
<path d="M62.5932 41.2858C62.4315 41.286 62.2723 41.2448 62.1311 41.1659C61.9898 41.0871 61.8711 40.9734 61.7863 40.8356L50.2363 22.0491C50.1143 21.8503 50.07 21.6135 50.1119 21.3841C50.1538 21.1547 50.279 20.9489 50.4634 20.8061L61.9027 11.9464C62.0283 11.8491 62.1763 11.785 62.3331 11.7601C62.49 11.7351 62.6506 11.75 62.8002 11.8034C62.9497 11.8569 63.0834 11.9471 63.189 12.0658C63.2945 12.1845 63.3684 12.3279 63.4039 12.4827L69.0294 37.0272C69.0761 37.2269 69.0566 37.4364 68.9739 37.6241C68.8911 37.8118 68.7496 37.9675 68.5707 38.0677L63.0549 41.1676C62.9137 41.246 62.7547 41.2867 62.5932 41.2858ZM52.2928 21.7804L62.9215 39.0676L67.0278 36.7595L61.8913 14.3481L52.2928 21.7804Z" fill="#201A1E"/>
<path d="M7.40681 41.6217C7.2448 41.6216 7.08552 41.5799 6.94424 41.5006L1.42843 38.4054C1.24949 38.3052 1.10797 38.1495 1.02522 37.9618C0.942472 37.7741 0.922967 37.5646 0.969647 37.3649L6.59613 12.8233C6.63165 12.6685 6.70557 12.5251 6.81108 12.4064C6.91659 12.2877 7.0503 12.1975 7.19987 12.144C7.34943 12.0906 7.51005 12.0757 7.6669 12.1006C7.82375 12.1256 7.97178 12.1897 8.09735 12.2869L19.5376 21.1457C19.722 21.2885 19.8472 21.4943 19.8891 21.7237C19.931 21.9532 19.8867 22.19 19.7646 22.3887L8.2137 41.1752C8.12847 41.3123 8.00959 41.4253 7.86835 41.5034C7.72711 41.5816 7.56823 41.6223 7.40681 41.6217ZM2.97221 37.1019L7.07857 39.4091L17.7072 22.121L8.1087 14.6887L2.97221 37.1019Z" fill="#201A1E"/>
</svg>
