<svg width="50" height="50" viewBox="0 0 50 50" fill="none" xmlns="http://www.w3.org/2000/svg">
<g clip-path="url(#clip0_1517_306)">
<path d="M41.6492 5.6665C41.6427 5.63761 41.6252 5.61483 41.6166 5.58756C41.6024 5.54077 41.5837 5.49561 41.5609 5.45247C41.5348 5.40283 41.5035 5.35645 41.4677 5.31331C41.4388 5.27751 41.4071 5.24414 41.3725 5.21322C41.3306 5.17782 41.2846 5.1473 41.2358 5.12166C41.1947 5.09684 41.1511 5.07568 41.106 5.05819C41.0518 5.0411 40.9957 5.0297 40.9391 5.02401C40.9045 5.01383 40.8691 5.0057 40.8333 5H36.6317C36.4168 2.0992 35.0708 0 33.3333 0C31.5959 0 30.2498 2.0992 30.035 5H28.2983C28.0835 2.0992 26.7375 0 25 0C23.2625 0 21.9165 2.0992 21.7017 5H19.965C19.7502 2.0992 18.4041 0 16.6667 0C14.9292 0 13.5832 2.0992 13.3683 5H11.6317C11.4168 2.0992 10.0708 0 8.33333 0C6.59587 0 5.24984 2.0992 5.03499 5H0.833333C0.373128 5 0 5.37313 0 5.83333V49.1667C0 49.6269 0.373128 50 0.833333 50H40.8333C41.2935 50 41.6667 49.6269 41.6667 49.1667V46.6667H49.1667C49.4169 46.6667 49.6537 46.554 49.8116 46.3603C49.9699 46.1662 50.0326 45.9119 49.9825 45.6665L41.6492 5.6665ZM33.3333 1.66667C33.9351 1.66667 34.775 2.94352 34.9601 5H31.7098C31.8917 2.94352 32.7315 1.66667 33.3333 1.66667ZM25 1.66667C25.6018 1.66667 26.4417 2.94352 26.6268 5H23.3765C23.5584 2.94352 24.3982 1.66667 25 1.66667ZM16.6667 1.66667C17.2685 1.66667 18.1083 2.94352 18.2935 5H15.0431C15.225 2.94352 16.0649 1.66667 16.6667 1.66667ZM8.33333 1.66667C8.93514 1.66667 9.77498 2.94352 9.96012 5H6.7098C6.89168 2.94352 7.73153 1.66667 8.33333 1.66667ZM1.66667 6.66667H5.03499C5.24984 9.56746 6.59587 11.6667 8.33333 11.6667C8.79354 11.6667 9.16667 11.2935 9.16667 10.8333C9.16667 10.3731 8.79354 10 8.33333 10C7.73153 10 6.89168 8.72314 6.70654 6.66667H13.3683C13.586 9.56746 14.9292 11.6667 16.6667 11.6667C17.1269 11.6667 17.5 11.2935 17.5 10.8333C17.5 10.3731 17.1269 10 16.6667 10C16.0649 10 15.225 8.72314 15.0399 6.66667H21.7017C21.9194 9.56746 23.2625 11.6667 25 11.6667C25.4602 11.6667 25.8333 11.2935 25.8333 10.8333C25.8333 10.3731 25.4602 10 25 10C24.3982 10 23.5584 8.72314 23.3732 6.66667H30.035C30.2527 9.56746 31.5959 11.6667 33.3333 11.6667C33.7935 11.6667 34.1667 11.2935 34.1667 10.8333C34.1667 10.3731 33.7935 10 33.3333 10C32.7315 10 31.8917 8.72314 31.7065 6.66667H40V15H1.66667V6.66667ZM40 48.3333H1.66667V16.6667H40V48.3333ZM41.6667 45V13.9168L48.1425 45H41.6667Z" fill="#201A1E"/>
<path d="M18.3333 30H15C14.5398 30 14.1666 30.3731 14.1666 30.8333V34.1667C14.1666 34.6269 14.5398 35 15 35H18.3333C18.7935 35 19.1666 34.6269 19.1666 34.1667V30.8333C19.1666 30.3731 18.7935 30 18.3333 30ZM17.5 33.3333H15.8333V31.6667H17.5V33.3333Z" fill="#CAA23E"/>
<path d="M26.6667 30H23.3333C22.8731 30 22.5 30.3731 22.5 30.8333V34.1667C22.5 34.6269 22.8731 35 23.3333 35H26.6667C27.1269 35 27.5 34.6269 27.5 34.1667V30.8333C27.5 30.3731 27.1269 30 26.6667 30ZM25.8333 33.3333H24.1667V31.6667H25.8333V33.3333Z" fill="#CAA23E"/>
<path d="M9.99998 30H6.66665C6.20644 30 5.83331 30.3731 5.83331 30.8333V34.1667C5.83331 34.6269 6.20644 35 6.66665 35H9.99998C10.4602 35 10.8333 34.6269 10.8333 34.1667V30.8333C10.8333 30.3731 10.4602 30 9.99998 30ZM9.16665 33.3333H7.49998V31.6667H9.16665V33.3333Z" fill="#CAA23E"/>
<path d="M18.3333 38.3335H15C14.5398 38.3335 14.1666 38.7066 14.1666 39.1668V42.5002C14.1666 42.9604 14.5398 43.3335 15 43.3335H18.3333C18.7935 43.3335 19.1666 42.9604 19.1666 42.5002V39.1668C19.1666 38.7066 18.7935 38.3335 18.3333 38.3335ZM17.5 41.6668H15.8333V40.0002H17.5V41.6668Z" fill="#CAA23E"/>
<path d="M26.6667 38.3335H23.3333C22.8731 38.3335 22.5 38.7066 22.5 39.1668V42.5002C22.5 42.9604 22.8731 43.3335 23.3333 43.3335H26.6667C27.1269 43.3335 27.5 42.9604 27.5 42.5002V39.1668C27.5 38.7066 27.1269 38.3335 26.6667 38.3335ZM25.8333 41.6668H24.1667V40.0002H25.8333V41.6668Z" fill="#CAA23E"/>
<path d="M9.99998 38.3335H6.66665C6.20644 38.3335 5.83331 38.7066 5.83331 39.1668V42.5002C5.83331 42.9604 6.20644 43.3335 6.66665 43.3335H9.99998C10.4602 43.3335 10.8333 42.9604 10.8333 42.5002V39.1668C10.8333 38.7066 10.4602 38.3335 9.99998 38.3335ZM9.16665 41.6668H7.49998V40.0002H9.16665V41.6668Z" fill="#CAA23E"/>
<path d="M18.3333 21.6667H15C14.5398 21.6667 14.1666 22.0399 14.1666 22.5001V25.8334C14.1666 26.2936 14.5398 26.6667 15 26.6667H18.3333C18.7935 26.6667 19.1666 26.2936 19.1666 25.8334V22.5001C19.1666 22.0399 18.7935 21.6667 18.3333 21.6667ZM17.5 25.0001H15.8333V23.3334H17.5V25.0001Z" fill="#CAA23E"/>
<path d="M26.6667 21.6667H23.3333C22.8731 21.6667 22.5 22.0399 22.5 22.5001V25.8334C22.5 26.2936 22.8731 26.6667 23.3333 26.6667H26.6667C27.1269 26.6667 27.5 26.2936 27.5 25.8334V22.5001C27.5 22.0399 27.1269 21.6667 26.6667 21.6667ZM25.8333 25.0001H24.1667V23.3334H25.8333V25.0001Z" fill="#CAA23E"/>
<path d="M35 30H31.6666C31.2064 30 30.8333 30.3731 30.8333 30.8333V34.1667C30.8333 34.6269 31.2064 35 31.6666 35H35C35.4602 35 35.8333 34.6269 35.8333 34.1667V30.8333C35.8333 30.3731 35.4602 30 35 30ZM34.1666 33.3333H32.5V31.6667H34.1666V33.3333Z" fill="#CAA23E"/>
<path d="M35 38.3335H31.6666C31.2064 38.3335 30.8333 38.7066 30.8333 39.1668V42.5002C30.8333 42.9604 31.2064 43.3335 31.6666 43.3335H35C35.4602 43.3335 35.8333 42.9604 35.8333 42.5002V39.1668C35.8333 38.7066 35.4602 38.3335 35 38.3335ZM34.1666 41.6668H32.5V40.0002H34.1666V41.6668Z" fill="#CAA23E"/>
<path d="M35 21.6667H31.6666C31.2064 21.6667 30.8333 22.0399 30.8333 22.5001V25.8334C30.8333 26.2936 31.2064 26.6667 31.6666 26.6667H35C35.4602 26.6667 35.8333 26.2936 35.8333 25.8334V22.5001C35.8333 22.0399 35.4602 21.6667 35 21.6667ZM34.1666 25.0001H32.5V23.3334H34.1666V25.0001Z" fill="#CAA23E"/>
<path d="M9.99998 21.6667H6.66665C6.20644 21.6667 5.83331 22.0399 5.83331 22.5001V25.8334C5.83331 26.2936 6.20644 26.6667 6.66665 26.6667H9.99998C10.4602 26.6667 10.8333 26.2936 10.8333 25.8334V22.5001C10.8333 22.0399 10.4602 21.6667 9.99998 21.6667ZM9.16665 25.0001H7.49998V23.3334H9.16665V25.0001Z" fill="#CAA23E"/>
</g>
<defs>
<clipPath id="clip0_1517_306">
<rect width="50" height="50" fill="white"/>
</clipPath>
</defs>
</svg>
