<svg width="70" height="70" viewBox="0 0 70 70" fill="none" xmlns="http://www.w3.org/2000/svg">
<path d="M66.0952 50.8484H61.1942C60.9433 50.8484 60.7027 50.7487 60.5253 50.5713C60.3479 50.3939 60.2483 50.1533 60.2483 49.9025C60.2483 49.6516 60.3479 49.411 60.5253 49.2336C60.7027 49.0562 60.9433 48.9565 61.1942 48.9565H66.0952C66.1273 48.9565 66.1581 48.9438 66.1808 48.921C66.2035 48.8983 66.2162 48.8675 66.2162 48.8354V29.242L58.2154 19.6237C58.2038 19.6099 58.1894 19.5988 58.173 19.5913C58.1566 19.5838 58.1388 19.58 58.1208 19.5802H46.6664V48.9565H49.9015C50.1524 48.9565 50.393 49.0562 50.5704 49.2336C50.7478 49.411 50.8474 49.6516 50.8474 49.9025C50.8474 50.1533 50.7478 50.3939 50.5704 50.5713C50.393 50.7487 50.1524 50.8484 49.9015 50.8484H45.7204C45.4695 50.8484 45.2289 50.7487 45.0515 50.5713C44.8741 50.3939 44.7745 50.1533 44.7745 49.9025V18.6352C44.7745 18.3843 44.8741 18.1437 45.0515 17.9663C45.2289 17.7889 45.4695 17.6892 45.7204 17.6892H58.1227C58.4174 17.6889 58.7085 17.7534 58.9754 17.8781C59.2424 18.0028 59.4786 18.1848 59.6674 18.411L67.6399 27.9518C67.9441 28.3134 68.1115 28.7704 68.1129 29.243V48.8354C68.1126 49.1001 68.0602 49.3621 67.9587 49.6066C67.8571 49.851 67.7084 50.073 67.521 50.2599C67.3337 50.4469 67.1113 50.5951 66.8666 50.696C66.622 50.797 66.3598 50.8488 66.0952 50.8484Z" fill="#201A1E"/>
<path d="M61.2624 34.4881H49.8344C49.5835 34.4881 49.3429 34.3885 49.1655 34.2111C48.9881 34.0337 48.8884 33.7931 48.8884 33.5422V23.2399C48.8884 22.989 48.9881 22.7484 49.1655 22.571C49.3429 22.3936 49.5835 22.2939 49.8344 22.2939H56.1968C56.3243 22.2941 56.4504 22.3199 56.5676 22.37C56.6848 22.4201 56.7907 22.4933 56.8788 22.5853L61.9444 27.8656C62.1137 28.0418 62.2083 28.2767 62.2083 28.5211V33.5422C62.2083 33.7931 62.1086 34.0337 61.9312 34.2111C61.7538 34.3885 61.5132 34.4881 61.2624 34.4881ZM50.7803 32.5962H60.3164V28.9014L55.7929 24.1858H50.7794L50.7803 32.5962Z" fill="#201A1E"/>
<path d="M15.3451 58.4981C13.9893 58.4981 12.6639 58.0961 11.5366 57.3428C10.4092 56.5896 9.53056 55.5189 9.0117 54.2663C8.49284 53.0136 8.35708 51.6353 8.62159 50.3055C8.88611 48.9757 9.53901 47.7542 10.4977 46.7955C11.4565 45.8367 12.678 45.1838 14.0077 44.9193C15.3375 44.6548 16.7159 44.7906 17.9685 45.3094C19.2212 45.8283 20.2918 46.7069 21.0451 47.8343C21.7984 48.9616 22.2004 50.287 22.2004 51.6429C22.1984 53.4604 21.4755 55.2029 20.1903 56.4881C18.9052 57.7733 17.1627 58.4961 15.3451 58.4981ZM15.3451 46.6795C14.3635 46.6795 13.4039 46.9706 12.5876 47.516C11.7714 48.0614 11.1352 48.8365 10.7596 49.7435C10.3839 50.6504 10.2856 51.6484 10.4771 52.6112C10.6686 53.574 11.1414 54.4584 11.8355 55.1525C12.5296 55.8467 13.414 56.3194 14.3768 56.5109C15.3396 56.7024 16.3376 56.6041 17.2445 56.2284C18.1515 55.8528 18.9267 55.2166 19.472 54.4004C20.0174 53.5842 20.3085 52.6245 20.3085 51.6429C20.307 50.327 19.7836 49.0654 18.8531 48.1349C17.9226 47.2044 16.6611 46.681 15.3451 46.6795Z" fill="#201A1E"/>
<path d="M55.5478 58.4981C54.192 58.4981 52.8666 58.0961 51.7393 57.3428C50.6119 56.5896 49.7333 55.5189 49.2144 54.2663C48.6955 53.0136 48.5598 51.6353 48.8243 50.3055C49.0888 48.9757 49.7417 47.7542 50.7004 46.7955C51.6592 45.8367 52.8807 45.1838 54.2104 44.9193C55.5402 44.6548 56.9186 44.7906 58.1712 45.3094C59.4239 45.8283 60.4945 46.7069 61.2478 47.8343C62.0011 48.9616 62.4031 50.287 62.4031 51.6429C62.4011 53.4604 61.6782 55.2029 60.393 56.4881C59.1079 57.7733 57.3654 58.4961 55.5478 58.4981ZM55.5478 46.6795C54.5662 46.6795 53.6066 46.9706 52.7903 47.516C51.9741 48.0614 51.3379 48.8365 50.9623 49.7435C50.5866 50.6504 50.4883 51.6484 50.6798 52.6112C50.8713 53.574 51.3441 54.4584 52.0382 55.1525C52.7323 55.8467 53.6167 56.3194 54.5795 56.5109C55.5423 56.7024 56.5403 56.6041 57.4472 56.2284C58.3542 55.8528 59.1294 55.2166 59.6747 54.4004C60.2201 53.5842 60.5112 52.6245 60.5112 51.6429C60.5097 50.327 59.9863 49.0654 59.0558 48.1349C58.1253 47.2044 56.8638 46.681 55.5478 46.6795Z" fill="#201A1E"/>
<path d="M54.6549 38.7139H52.5C52.2491 38.7139 52.0085 38.6143 51.8311 38.4369C51.6537 38.2595 51.5541 38.0189 51.5541 37.768C51.5541 37.5171 51.6537 37.2765 51.8311 37.0991C52.0085 36.9217 52.2491 36.822 52.5 36.822H54.6587C54.9095 36.822 55.1501 36.9217 55.3275 37.0991C55.5049 37.2765 55.6046 37.5171 55.6046 37.768C55.6046 38.0189 55.5049 38.2595 55.3275 38.4369C55.1501 38.6143 54.9095 38.7139 54.6587 38.7139H54.6549Z" fill="#201A1E"/>
<path d="M67.1622 43.9278H63.5884C63.3375 43.9278 63.0969 43.8282 62.9195 43.6508C62.7421 43.4734 62.6425 43.2328 62.6425 42.9819C62.6425 42.731 62.7421 42.4904 62.9195 42.313C63.0969 42.1356 63.3375 42.036 63.5884 42.036H66.2162V39.9851H63.5884C63.3375 39.9851 63.0969 39.8855 62.9195 39.7081C62.7421 39.5307 62.6425 39.2901 62.6425 39.0392C62.6425 38.7883 62.7421 38.5477 62.9195 38.3703C63.0969 38.1929 63.3375 38.0933 63.5884 38.0933H67.1622C67.4131 38.0933 67.6537 38.1929 67.8311 38.3703C68.0085 38.5477 68.1081 38.7883 68.1081 39.0392V42.9819C68.1081 43.2328 68.0085 43.4734 67.8311 43.6508C67.6537 43.8282 67.4131 43.9278 67.1622 43.9278Z" fill="#201A1E"/>
<path d="M37.4433 43.1427H7.962C7.71112 43.1427 7.47051 43.0431 7.29311 42.8657C7.11571 42.6883 7.01605 42.4477 7.01605 42.1968V25.5604C7.01605 25.3096 7.11571 25.069 7.29311 24.8916C7.47051 24.7142 7.71112 24.6145 7.962 24.6145H37.4433C37.6942 24.6145 37.9348 24.7142 38.1122 24.8916C38.2896 25.069 38.3893 25.3096 38.3893 25.5604V42.1968C38.3893 42.4477 38.2896 42.6883 38.1122 42.8657C37.9348 43.0431 37.6942 43.1427 37.4433 43.1427ZM8.90794 41.2509H36.4974V26.5064H8.90794V41.2509Z" fill="#CAA23E"/>
<path d="M45.7204 50.8483H20.9914C20.7406 50.8483 20.5 50.7487 20.3226 50.5713C20.1452 50.3939 20.0455 50.1532 20.0455 49.9024C20.0455 49.6515 20.1452 49.4109 20.3226 49.2335C20.5 49.0561 20.7406 48.9564 20.9914 48.9564H44.7744V43.1426H3.78374V48.9564H9.69874C9.94962 48.9564 10.1902 49.0561 10.3676 49.2335C10.545 49.4109 10.6447 49.6515 10.6447 49.9024C10.6447 50.1532 10.545 50.3939 10.3676 50.5713C10.1902 50.7487 9.94962 50.8483 9.69874 50.8483H2.83779C2.58691 50.8483 2.34631 50.7487 2.16891 50.5713C1.99151 50.3939 1.89185 50.1532 1.89185 49.9024V42.1967C1.89185 41.9458 1.99151 41.7052 2.16891 41.5278C2.34631 41.3504 2.58691 41.2507 2.83779 41.2507H45.7204C45.9712 41.2507 46.2118 41.3504 46.3892 41.5278C46.5666 41.7052 46.6663 41.9458 46.6663 42.1967V49.9024C46.6663 50.1532 46.5666 50.3939 46.3892 50.5713C46.2118 50.7487 45.9712 50.8483 45.7204 50.8483Z" fill="#201A1E"/>
<path d="M39.4828 26.5072H5.92254C5.52706 26.5067 5.14791 26.3494 4.86826 26.0697C4.58861 25.7901 4.43129 25.4109 4.43079 25.0155V19.9319C4.43129 19.5365 4.58861 19.1573 4.86826 18.8777C5.14791 18.598 5.52706 18.4407 5.92254 18.4402H39.4828C39.8783 18.4407 40.2574 18.598 40.5371 18.8777C40.8167 19.1573 40.9741 19.5365 40.9746 19.9319V25.0155C40.9741 25.4109 40.8167 25.7901 40.5371 26.0697C40.2574 26.3494 39.8783 26.5067 39.4828 26.5072ZM6.32268 24.6153H39.0827V20.3321H6.32268V24.6153Z" fill="#CAA23E"/>
<path d="M25.3873 26.5063H20.0181C19.7672 26.5063 19.5266 26.4066 19.3492 26.2292C19.1718 26.0518 19.0721 25.8112 19.0721 25.5603V19.3861C19.0721 19.1353 19.1718 18.8946 19.3492 18.7172C19.5266 18.5398 19.7672 18.4402 20.0181 18.4402H25.3873C25.6382 18.4402 25.8788 18.5398 26.0562 18.7172C26.2336 18.8946 26.3332 19.1353 26.3332 19.3861V25.5603C26.3332 25.8112 26.2336 26.0518 26.0562 26.2292C25.8788 26.4066 25.6382 26.5063 25.3873 26.5063ZM20.964 24.6144H24.4413V20.3321H20.964V24.6144Z" fill="#CAA23E"/>
<path d="M29.3962 20.3378C29.169 20.338 28.9493 20.2565 28.7772 20.1081C28.6052 19.9597 28.4923 19.7543 28.4592 19.5295C28.4261 19.3047 28.4751 19.0755 28.5971 18.8838C28.7192 18.6921 28.9061 18.5508 29.1238 18.4856C29.4893 18.3943 29.8397 18.2509 30.1644 18.0599C30.7138 17.6644 31.0848 17.068 31.1966 16.4003C31.3084 15.7326 31.152 15.0477 30.7614 14.4948C30.3707 13.9419 29.7775 13.5657 29.1108 13.448C28.4441 13.3304 27.758 13.4808 27.2017 13.8666C26.6757 14.2449 25.4356 16.0016 23.5484 19.8109C23.4364 20.0359 23.2396 20.2072 23.0012 20.2872C22.7629 20.3671 22.5026 20.349 22.2775 20.237C22.0525 20.125 21.8812 19.9282 21.8013 19.6898C21.7213 19.4515 21.7394 19.1912 21.8514 18.9661C23.6894 15.2552 25.1225 13.018 26.1081 12.3171C26.5864 11.9727 27.1283 11.7266 27.7023 11.593C28.2763 11.4593 28.8711 11.4408 29.4523 11.5384C30.0335 11.6361 30.5896 11.848 31.0884 12.1619C31.5872 12.4757 32.0189 12.8854 32.3584 13.3671C32.6979 13.8489 32.9386 14.3932 33.0665 14.9685C33.1943 15.5438 33.2069 16.1388 33.1034 16.719C32.9999 17.2992 32.7824 17.8531 32.4636 18.3487C32.1447 18.8444 31.7307 19.2719 31.2456 19.6065C30.7573 19.9143 30.2249 20.1456 29.6668 20.2924C29.5792 20.3201 29.4881 20.3354 29.3962 20.3378Z" fill="#CAA23E"/>
<path d="M16.0091 20.3378C15.9162 20.3373 15.8239 20.3236 15.7348 20.2972C15.178 20.151 14.6468 19.9203 14.1598 19.6132C13.6727 19.2798 13.2565 18.853 12.9356 18.3576C12.6147 17.8621 12.3953 17.3079 12.2902 16.727C12.1852 16.1461 12.1965 15.5501 12.3236 14.9736C12.4506 14.3971 12.6909 13.8516 13.0304 13.3686C13.3699 12.8857 13.8019 12.475 14.3014 12.1604C14.8009 11.8457 15.3579 11.6334 15.94 11.5356C16.5222 11.4379 17.118 11.4568 17.6929 11.5911C18.2677 11.7254 18.8101 11.9725 19.2887 12.3181C20.2791 13.0228 21.7123 15.26 23.5502 18.971C23.6596 19.1955 23.6757 19.4542 23.595 19.6905C23.5144 19.9269 23.3435 20.1218 23.1198 20.2327C22.896 20.3436 22.6374 20.3615 22.4005 20.2824C22.1636 20.2034 21.9675 20.034 21.8551 19.811C19.9679 16.0016 18.7278 14.2412 18.1971 13.8628C17.6402 13.4711 16.9504 13.3166 16.2796 13.4335C15.6087 13.5503 15.0118 13.9288 14.62 14.4857C14.2283 15.0427 14.0738 15.7325 14.1906 16.4033C14.3075 17.0741 14.686 17.6711 15.2429 18.0628C15.5679 18.2525 15.9183 18.3949 16.2835 18.4857C16.5012 18.5508 16.6881 18.6922 16.8101 18.8839C16.9322 19.0755 16.9811 19.3047 16.9481 19.5296C16.915 19.7544 16.8021 19.9598 16.6301 20.1082C16.458 20.2566 16.2383 20.3381 16.011 20.3378H16.0091Z" fill="#CAA23E"/>
</svg>
