<svg width="60" height="60" viewBox="0 0 60 60" fill="none" xmlns="http://www.w3.org/2000/svg">
<path d="M42.1875 39.375C40.7041 39.375 39.2541 39.8149 38.0207 40.639C36.7874 41.4631 35.8261 42.6344 35.2584 44.0049C34.6907 45.3753 34.5422 46.8833 34.8316 48.3382C35.121 49.793 35.8353 51.1294 36.8842 52.1783C37.9331 53.2272 39.2695 53.9415 40.7243 54.2309C42.1792 54.5203 43.6872 54.3718 45.0576 53.8041C46.4281 53.2364 47.5994 52.2751 48.4235 51.0418C49.2476 49.8084 49.6875 48.3584 49.6875 46.875C49.6853 44.8866 48.8944 42.9802 47.4883 41.5742C46.0823 40.1681 44.1759 39.3772 42.1875 39.375ZM42.1875 52.5C41.075 52.5 39.9874 52.1701 39.0624 51.552C38.1374 50.9339 37.4164 50.0554 36.9907 49.0276C36.5649 47.9998 36.4535 46.8688 36.6706 45.7776C36.8876 44.6865 37.4234 43.6842 38.21 42.8975C38.9967 42.1109 39.999 41.5751 41.0901 41.3581C42.1813 41.141 43.3123 41.2524 44.3401 41.6782C45.3679 42.1039 46.2464 42.8249 46.8645 43.7499C47.4826 44.6749 47.8125 45.7625 47.8125 46.875C47.811 48.3664 47.2179 49.7963 46.1633 50.8508C45.1088 51.9054 43.6789 52.4985 42.1875 52.5Z" fill="#CAA23E"/>
<path d="M5.625 5.625H7.5V7.5H5.625V5.625Z" fill="#CAA23E"/>
<path d="M9.375 5.625H11.25V7.5H9.375V5.625Z" fill="#CAA23E"/>
<path d="M13.125 5.625H15V7.5H13.125V5.625Z" fill="#CAA23E"/>
<path d="M56.25 35.625H55.3125V33.75C55.3125 33.5014 55.2137 33.2629 55.0379 33.0871C54.8621 32.9113 54.6236 32.8125 54.375 32.8125H52.5V2.8125C52.5 2.56386 52.4012 2.3254 52.2254 2.14959C52.0496 1.97377 51.8111 1.875 51.5625 1.875H2.8125C2.56386 1.875 2.3254 1.97377 2.14959 2.14959C1.97377 2.3254 1.875 2.56386 1.875 2.8125V45.9375C1.875 46.1861 1.97377 46.4246 2.14959 46.6004C2.3254 46.7762 2.56386 46.875 2.8125 46.875H25.3125V56.25C25.314 56.7468 25.512 57.2229 25.8633 57.5742C26.2146 57.9255 26.6907 58.1235 27.1875 58.125H56.25C56.7468 58.1235 57.2229 57.9255 57.5742 57.5742C57.9255 57.2229 58.1235 56.7468 58.125 56.25V37.5C58.1235 37.0032 57.9255 36.5271 57.5742 36.1758C57.2229 35.8245 56.7468 35.6265 56.25 35.625ZM53.4375 34.6875V35.625H50.625V34.6875H53.4375ZM3.75 3.75H50.625V9.375H3.75V3.75ZM25.3125 45H3.75V11.25H50.625V32.8125H49.6875C49.4389 32.8125 49.2004 32.9113 49.0246 33.0871C48.8488 33.2629 48.75 33.5014 48.75 33.75V35.625H47.8125V14.0625C47.8125 13.8139 47.7137 13.5754 47.5379 13.3996C47.3621 13.2238 47.1236 13.125 46.875 13.125H7.5C7.25136 13.125 7.0129 13.2238 6.83709 13.3996C6.66127 13.5754 6.5625 13.8139 6.5625 14.0625V42.1875C6.5625 42.4361 6.66127 42.6746 6.83709 42.8504C7.0129 43.0262 7.25136 43.125 7.5 43.125H25.3125V45ZM45.9375 15V31.2188L36.3375 20.0156C36.2482 19.907 36.1347 19.8207 36.0061 19.7637C35.8775 19.7068 35.7374 19.6807 35.5969 19.6875C35.4583 19.6911 35.3223 19.7259 35.199 19.7891C35.0756 19.8524 34.9681 19.9427 34.8844 20.0531L26.025 31.5656L19.2469 27.3281C19.0862 27.2281 18.899 27.179 18.7099 27.1874C18.5208 27.1958 18.3387 27.2612 18.1875 27.375L8.4375 34.6875V15H45.9375ZM25.3125 37.5V41.25H8.4375V37.0312L18.7969 29.2594L25.7531 33.6094C25.9506 33.7319 26.1865 33.7768 26.4152 33.7352C26.6439 33.6936 26.8489 33.5686 26.9906 33.3844L35.6625 22.1156L45.9375 34.0969V35.625H27.1875C26.6907 35.6265 26.2146 35.8245 25.8633 36.1758C25.512 36.5271 25.314 37.0032 25.3125 37.5ZM27.1875 56.25V37.5H35.9813C34.431 38.5238 33.1588 39.9161 32.2786 41.5522C31.3985 43.1883 30.9377 45.0172 30.9377 46.875C30.9377 48.7328 31.3985 50.5617 32.2786 52.1978C33.1588 53.8339 34.431 55.2262 35.9813 56.25H27.1875ZM32.8125 46.875C32.8125 45.0208 33.3623 43.2082 34.3925 41.6665C35.4226 40.1248 36.8868 38.9232 38.5998 38.2136C40.3129 37.5041 42.1979 37.3184 44.0165 37.6801C45.835 38.0419 47.5055 38.9348 48.8166 40.2459C50.1277 41.557 51.0206 43.2275 51.3824 45.046C51.7441 46.8646 51.5584 48.7496 50.8489 50.4627C50.1393 52.1757 48.9377 53.6399 47.396 54.67C45.8543 55.7002 44.0417 56.25 42.1875 56.25C39.7023 56.246 37.32 55.257 35.5628 53.4997C33.8055 51.7425 32.8165 49.3602 32.8125 46.875ZM56.25 56.25H48.3937C49.944 55.2262 51.2162 53.8339 52.0964 52.1978C52.9765 50.5617 53.4373 48.7328 53.4373 46.875C53.4373 45.0172 52.9765 43.1883 52.0964 41.5522C51.2162 39.9161 49.944 38.5238 48.3937 37.5H56.25V56.25Z" fill="#201A1E"/>
<mask id="mask0_1517_334" style="mask-type:alpha" maskUnits="userSpaceOnUse" x="1" y="1" width="58" height="58">
<path d="M56.25 35.625H55.3125V33.75C55.3125 33.5014 55.2137 33.2629 55.0379 33.0871C54.8621 32.9113 54.6236 32.8125 54.375 32.8125H52.5V2.8125C52.5 2.56386 52.4012 2.3254 52.2254 2.14959C52.0496 1.97377 51.8111 1.875 51.5625 1.875H2.8125C2.56386 1.875 2.3254 1.97377 2.14959 2.14959C1.97377 2.3254 1.875 2.56386 1.875 2.8125V45.9375C1.875 46.1861 1.97377 46.4246 2.14959 46.6004C2.3254 46.7762 2.56386 46.875 2.8125 46.875H25.3125V56.25C25.314 56.7468 25.512 57.2229 25.8633 57.5742C26.2146 57.9255 26.6907 58.1235 27.1875 58.125H56.25C56.7468 58.1235 57.2229 57.9255 57.5742 57.5742C57.9255 57.2229 58.1235 56.7468 58.125 56.25V37.5C58.1235 37.0032 57.9255 36.5271 57.5742 36.1758C57.2229 35.8245 56.7468 35.6265 56.25 35.625ZM53.4375 34.6875V35.625H50.625V34.6875H53.4375ZM3.75 3.75H50.625V9.375H3.75V3.75ZM25.3125 45H3.75V11.25H50.625V32.8125H49.6875C49.4389 32.8125 49.2004 32.9113 49.0246 33.0871C48.8488 33.2629 48.75 33.5014 48.75 33.75V35.625H47.8125V14.0625C47.8125 13.8139 47.7137 13.5754 47.5379 13.3996C47.3621 13.2238 47.1236 13.125 46.875 13.125H7.5C7.25136 13.125 7.0129 13.2238 6.83709 13.3996C6.66127 13.5754 6.5625 13.8139 6.5625 14.0625V42.1875C6.5625 42.4361 6.66127 42.6746 6.83709 42.8504C7.0129 43.0262 7.25136 43.125 7.5 43.125H25.3125V45ZM45.9375 15V31.2188L36.3375 20.0156C36.2482 19.907 36.1347 19.8207 36.0061 19.7637C35.8775 19.7068 35.7374 19.6807 35.5969 19.6875C35.4583 19.6911 35.3223 19.7259 35.199 19.7891C35.0756 19.8524 34.9681 19.9427 34.8844 20.0531L26.025 31.5656L19.2469 27.3281C19.0862 27.2281 18.899 27.179 18.7099 27.1874C18.5208 27.1958 18.3387 27.2612 18.1875 27.375L8.4375 34.6875V15H45.9375ZM25.3125 37.5V41.25H8.4375V37.0312L18.7969 29.2594L25.7531 33.6094C25.9506 33.7319 26.1865 33.7768 26.4152 33.7352C26.6439 33.6936 26.8489 33.5686 26.9906 33.3844L35.6625 22.1156L45.9375 34.0969V35.625H27.1875C26.6907 35.6265 26.2146 35.8245 25.8633 36.1758C25.512 36.5271 25.314 37.0032 25.3125 37.5ZM27.1875 56.25V37.5H35.9813C34.431 38.5238 33.1588 39.9161 32.2786 41.5522C31.3985 43.1883 30.9377 45.0172 30.9377 46.875C30.9377 48.7328 31.3985 50.5617 32.2786 52.1978C33.1588 53.8339 34.431 55.2262 35.9813 56.25H27.1875ZM32.8125 46.875C32.8125 45.0208 33.3623 43.2082 34.3925 41.6665C35.4226 40.1248 36.8868 38.9232 38.5998 38.2136C40.3129 37.5041 42.1979 37.3184 44.0165 37.6801C45.835 38.0419 47.5055 38.9348 48.8166 40.2459C50.1277 41.557 51.0206 43.2275 51.3824 45.046C51.7441 46.8646 51.5584 48.7496 50.8489 50.4627C50.1393 52.1757 48.9377 53.6399 47.396 54.67C45.8543 55.7002 44.0417 56.25 42.1875 56.25C39.7023 56.246 37.32 55.257 35.5628 53.4997C33.8055 51.7425 32.8165 49.3602 32.8125 46.875ZM56.25 56.25H48.3937C49.944 55.2262 51.2162 53.8339 52.0964 52.1978C52.9765 50.5617 53.4373 48.7328 53.4373 46.875C53.4373 45.0172 52.9765 43.1883 52.0964 41.5522C51.2162 39.9161 49.944 38.5238 48.3937 37.5H56.25V56.25Z" fill="#201A1E"/>
</mask>
<g mask="url(#mask0_1517_334)">
<path d="M5.81633 44L5.5 13V12H48.5V35.5H25.3163V44H5.81633Z" fill="#CAA23E"/>
</g>
<path d="M21.5625 25.3125C22.3042 25.3125 23.0292 25.0926 23.6459 24.6805C24.2626 24.2685 24.7432 23.6828 25.027 22.9976C25.3109 22.3123 25.3851 21.5583 25.2404 20.8309C25.0958 20.1035 24.7386 19.4353 24.2141 18.9109C23.6897 18.3864 23.0215 18.0293 22.2941 17.8846C21.5667 17.7399 20.8127 17.8141 20.1274 18.098C19.4422 18.3818 18.8565 18.8624 18.4445 19.4791C18.0324 20.0958 17.8125 20.8208 17.8125 21.5625C17.8125 22.5571 18.2076 23.5109 18.9109 24.2142C19.6141 24.9174 20.5679 25.3125 21.5625 25.3125ZM21.5625 19.6875C21.9333 19.6875 22.2959 19.7975 22.6042 20.0035C22.9125 20.2095 23.1529 20.5024 23.2948 20.845C23.4367 21.1876 23.4738 21.5646 23.4015 21.9283C23.3291 22.292 23.1505 22.6261 22.8883 22.8883C22.6261 23.1506 22.292 23.3291 21.9283 23.4015C21.5646 23.4738 21.1876 23.4367 20.845 23.2948C20.5024 23.1529 20.2095 22.9125 20.0035 22.6042C19.7975 22.2959 19.6875 21.9333 19.6875 21.5625C19.6875 21.0652 19.885 20.5883 20.2367 20.2367C20.5883 19.885 21.0652 19.6875 21.5625 19.6875Z" fill="#CAA23E"/>
</svg>
